<mxfile host="app.diagrams.net" agent="Mozilla/5.0 (X11; Linux x86_64; rv:129.0) Gecko/20100101 Firefox/129.0" version="24.7.10">
  <diagram name="Page-1" id="o88a3t7a5GBlfN1_9MtQ">
    <mxGraphModel dx="1018" dy="704" grid="1" gridSize="10" guides="1" tooltips="1" connect="1" arrows="1" fold="1" page="1" pageScale="1" pageWidth="850" pageHeight="1100" math="0" shadow="0">
      <root>
        <mxCell id="0" />
        <mxCell id="1" parent="0" />
        <mxCell id="ygFLU85KoZB7x09PTmzy-2" value="" style="rounded=0;whiteSpace=wrap;html=1;fillColor=none;" parent="1" vertex="1">
          <mxGeometry x="140" y="110.96" width="120" height="68.09" as="geometry" />
        </mxCell>
        <mxCell id="OYKhvysy2fvlji-S3JPo-3" style="edgeStyle=orthogonalEdgeStyle;rounded=0;orthogonalLoop=1;jettySize=auto;html=1;entryX=0;entryY=0.5;entryDx=0;entryDy=0;" parent="1" source="OYKhvysy2fvlji-S3JPo-2" target="V6RaSeCVJ2EmEDFPqsmU-1" edge="1">
          <mxGeometry relative="1" as="geometry">
            <mxPoint x="340" y="300" as="targetPoint" />
          </mxGeometry>
        </mxCell>
        <mxCell id="OYKhvysy2fvlji-S3JPo-2" value="" style="sketch=0;pointerEvents=1;shadow=0;dashed=0;html=1;strokeColor=none;fillColor=#505050;labelPosition=center;verticalLabelPosition=bottom;verticalAlign=top;outlineConnect=0;align=center;shape=mxgraph.office.concepts.sound_file;" parent="1" vertex="1">
          <mxGeometry x="230" y="275" width="40" height="50" as="geometry" />
        </mxCell>
        <mxCell id="OYKhvysy2fvlji-S3JPo-10" style="edgeStyle=orthogonalEdgeStyle;rounded=0;orthogonalLoop=1;jettySize=auto;html=1;" parent="1" target="OYKhvysy2fvlji-S3JPo-9" edge="1">
          <mxGeometry relative="1" as="geometry">
            <mxPoint x="470" y="300" as="sourcePoint" />
          </mxGeometry>
        </mxCell>
        <mxCell id="OYKhvysy2fvlji-S3JPo-9" value="&lt;div&gt;REFRACTORY&lt;br&gt;(limited frequency range)&lt;br&gt;&lt;/div&gt;" style="rounded=0;whiteSpace=wrap;html=1;fillColor=none;" parent="1" vertex="1">
          <mxGeometry x="520" y="270" width="120" height="60" as="geometry" />
        </mxCell>
        <mxCell id="OYKhvysy2fvlji-S3JPo-13" style="edgeStyle=orthogonalEdgeStyle;rounded=0;orthogonalLoop=1;jettySize=auto;html=1;exitX=1;exitY=0.5;exitDx=0;exitDy=0;" parent="1" source="ygFLU85KoZB7x09PTmzy-2" target="OYKhvysy2fvlji-S3JPo-12" edge="1">
          <mxGeometry relative="1" as="geometry" />
        </mxCell>
        <mxCell id="OYKhvysy2fvlji-S3JPo-11" value="" style="sketch=0;pointerEvents=1;shadow=0;dashed=0;html=1;strokeColor=none;fillColor=#505050;labelPosition=center;verticalLabelPosition=bottom;verticalAlign=top;outlineConnect=0;align=center;shape=mxgraph.office.concepts.sound_file;" parent="1" vertex="1">
          <mxGeometry x="200" y="120" width="40" height="50" as="geometry" />
        </mxCell>
        <mxCell id="OYKhvysy2fvlji-S3JPo-16" style="edgeStyle=orthogonalEdgeStyle;rounded=0;orthogonalLoop=1;jettySize=auto;html=1;" parent="1" source="OYKhvysy2fvlji-S3JPo-12" target="OYKhvysy2fvlji-S3JPo-15" edge="1">
          <mxGeometry relative="1" as="geometry" />
        </mxCell>
        <mxCell id="OYKhvysy2fvlji-S3JPo-17" style="edgeStyle=orthogonalEdgeStyle;rounded=0;orthogonalLoop=1;jettySize=auto;html=1;" parent="1" source="OYKhvysy2fvlji-S3JPo-12" target="OYKhvysy2fvlji-S3JPo-14" edge="1">
          <mxGeometry relative="1" as="geometry" />
        </mxCell>
        <mxCell id="OYKhvysy2fvlji-S3JPo-12" value="HRTF" style="rounded=0;whiteSpace=wrap;html=1;fillColor=none;" parent="1" vertex="1">
          <mxGeometry x="340" y="115" width="120" height="60" as="geometry" />
        </mxCell>
        <mxCell id="OYKhvysy2fvlji-S3JPo-21" style="edgeStyle=orthogonalEdgeStyle;rounded=0;orthogonalLoop=1;jettySize=auto;html=1;" parent="1" source="OYKhvysy2fvlji-S3JPo-14" target="OYKhvysy2fvlji-S3JPo-18" edge="1">
          <mxGeometry relative="1" as="geometry" />
        </mxCell>
        <mxCell id="OYKhvysy2fvlji-S3JPo-14" value="" style="pointerEvents=1;verticalLabelPosition=bottom;shadow=0;dashed=0;align=center;html=1;verticalAlign=top;shape=mxgraph.electrical.waveforms.sine_wave;" parent="1" vertex="1">
          <mxGeometry x="550" y="150" width="90" height="66.18" as="geometry" />
        </mxCell>
        <mxCell id="OYKhvysy2fvlji-S3JPo-20" style="edgeStyle=orthogonalEdgeStyle;rounded=0;orthogonalLoop=1;jettySize=auto;html=1;" parent="1" source="OYKhvysy2fvlji-S3JPo-15" target="OYKhvysy2fvlji-S3JPo-19" edge="1">
          <mxGeometry relative="1" as="geometry" />
        </mxCell>
        <mxCell id="OYKhvysy2fvlji-S3JPo-15" value="" style="pointerEvents=1;verticalLabelPosition=bottom;shadow=0;dashed=0;align=center;html=1;verticalAlign=top;shape=mxgraph.electrical.waveforms.sine_wave;" parent="1" vertex="1">
          <mxGeometry x="550" y="59.99999999999999" width="90" height="66.18" as="geometry" />
        </mxCell>
        <mxCell id="OYKhvysy2fvlji-S3JPo-18" value="" style="sketch=0;pointerEvents=1;shadow=0;dashed=0;html=1;strokeColor=none;fillColor=#505050;labelPosition=center;verticalLabelPosition=bottom;verticalAlign=top;outlineConnect=0;align=center;shape=mxgraph.office.concepts.sound_file;" parent="1" vertex="1">
          <mxGeometry x="750" y="158.09" width="40" height="50" as="geometry" />
        </mxCell>
        <mxCell id="OYKhvysy2fvlji-S3JPo-19" value="" style="sketch=0;pointerEvents=1;shadow=0;dashed=0;html=1;strokeColor=none;fillColor=#505050;labelPosition=center;verticalLabelPosition=bottom;verticalAlign=top;outlineConnect=0;align=center;shape=mxgraph.office.concepts.sound_file;" parent="1" vertex="1">
          <mxGeometry x="750" y="68.09" width="40" height="50" as="geometry" />
        </mxCell>
        <mxCell id="OYKhvysy2fvlji-S3JPo-22" value="" style="shape=singleArrow;whiteSpace=wrap;html=1;arrowWidth=0.4;arrowSize=0.4;rounded=0;fillColor=none;" parent="1" vertex="1">
          <mxGeometry x="660" y="270" width="80" height="60" as="geometry" />
        </mxCell>
        <mxCell id="ygFLU85KoZB7x09PTmzy-1" value="" style="html=1;verticalLabelPosition=bottom;align=center;labelBackgroundColor=#ffffff;verticalAlign=top;strokeWidth=2;strokeColor=#00070D;shadow=0;dashed=0;shape=mxgraph.ios7.icons.location_2;" parent="1" vertex="1">
          <mxGeometry x="150" y="130" width="30" height="30" as="geometry" />
        </mxCell>
        <mxCell id="V6RaSeCVJ2EmEDFPqsmU-1" value="GAMMACHIRP" style="rounded=0;whiteSpace=wrap;html=1;fillColor=none;" vertex="1" parent="1">
          <mxGeometry x="350" y="270" width="120" height="60" as="geometry" />
        </mxCell>
      </root>
    </mxGraphModel>
  </diagram>
</mxfile>
